<svg width="9" height="12" viewBox="0 0 9 12" fill="none" xmlns="http://www.w3.org/2000/svg">
<path id="&#244;&#128;&#132;&#168;" d="M0.503906 4.96289C0.210938 4.96289 0 4.74023 0 4.45312C0 4.3125 0.0527344 4.18945 0.164062 4.07227L4.04883 0.175781C4.16016 0.0585938 4.29492 0 4.44141 0C4.58789 0 4.72266 0.0585938 4.83398 0.175781L8.72461 4.07227C8.83594 4.18945 8.88281 4.3125 8.88281 4.45312C8.88281 4.74023 8.67188 4.96289 8.37891 4.96289C8.23828 4.96289 8.10352 4.91602 8.00977 4.82227L6.67383 3.50977L4.92188 1.59375L4.96289 2.83594V10.5527C4.96289 10.8574 4.74609 11.0684 4.44141 11.0684C4.13672 11.0684 3.91992 10.8574 3.91992 10.5527V2.83594L3.9668 1.58203L2.20898 3.50977L0.873047 4.82227C0.785156 4.91602 0.644531 4.96289 0.503906 4.96289Z" fill="white"/>
</svg>
