<svg width="11" height="11" viewBox="0 0 11 11" fill="none" xmlns="http://www.w3.org/2000/svg">
<path id="&#244;&#128;&#153;&#160;" d="M1.51758 2.81836C1.26562 3.15234 0.972656 3.07617 0.84375 2.69531L0.105469 0.539062C0 0.228516 0.169922 0 0.498047 0.00585938L2.77734 0.0410156C3.16992 0.046875 3.33984 0.304688 3.09375 0.644531L2.64844 1.25977C3.9668 2.12695 4.92773 3.24609 5.4668 4.5293C6.00586 3.24609 6.9668 2.12695 8.28516 1.25977L7.83984 0.644531C7.59375 0.304688 7.75781 0.046875 8.15625 0.0410156L10.4414 0.00585938C10.7637 0 10.9336 0.228516 10.8223 0.539062L10.0898 2.69531C9.96094 3.07617 9.66211 3.15234 9.41602 2.81836L8.87695 2.07422C6.99023 3.29297 5.9707 5.05078 5.9707 7.04883V10.4707C5.9707 10.7461 5.74219 10.9688 5.4668 10.9688C5.19141 10.9688 4.96875 10.7461 4.96875 10.4707V7.04883C4.96875 5.05078 3.94922 3.29297 2.05664 2.07422L1.51758 2.81836Z" fill="white"/>
</svg>
