<svg width="9" height="12" viewBox="0 0 9 12" fill="none" xmlns="http://www.w3.org/2000/svg">
<path id="&#244;&#128;&#132;&#169;" d="M4.44141 11.0684C4.29492 11.0684 4.16016 11.0098 4.04883 10.8926L0.164062 6.99609C0.0527344 6.87891 0 6.75586 0 6.61523C0 6.32812 0.210938 6.10547 0.503906 6.10547C0.644531 6.10547 0.785156 6.15234 0.873047 6.24609L2.20898 7.55859L3.9668 9.48633L3.91992 8.23242V0.515625C3.91992 0.210938 4.13672 0 4.44141 0C4.74609 0 4.96289 0.210938 4.96289 0.515625V8.23242L4.92188 9.47461L6.67383 7.55859L8.00977 6.24609C8.10352 6.15234 8.23828 6.10547 8.37891 6.10547C8.67188 6.10547 8.88281 6.32812 8.88281 6.61523C8.88281 6.75586 8.83594 6.87891 8.72461 6.99609L4.83398 10.8926C4.72266 11.0098 4.58789 11.0684 4.44141 11.0684Z" fill="white"/>
</svg>
