<svg width="13" height="14" viewBox="0 0 13 14" fill="none" xmlns="http://www.w3.org/2000/svg">
<path id="&#244;&#128;&#141;&#191;" d="M6.05273 13.3301C2.71289 13.3301 0 10.6172 0 7.27734C0 4.3418 2.0918 1.89258 4.875 1.3418V0.550781C4.875 0.111328 5.20312 0 5.53125 0.240234L7.42383 1.59961C7.6875 1.78711 7.68164 2.08008 7.42383 2.26758L5.52539 3.62695C5.20312 3.86133 4.875 3.75 4.875 3.31641V2.56055C2.75977 3.08789 1.18945 4.99805 1.18945 7.27734C1.18945 9.9668 3.36328 12.1348 6.05273 12.1348C8.74219 12.1348 10.916 9.9668 10.916 7.27734C10.916 5.70117 10.166 4.32422 9.01172 3.43945C8.73633 3.20508 8.64844 2.86523 8.85352 2.57812C9.04102 2.31445 9.43945 2.25 9.74414 2.50781C11.1914 3.62109 12.1055 5.34961 12.1055 7.27734C12.1055 10.6172 9.39258 13.3301 6.05273 13.3301Z" fill="white"/>
</svg>
