<svg width="17" height="10" viewBox="0 0 17 10" fill="none" xmlns="http://www.w3.org/2000/svg">
<path id="&#244;&#128;&#137;&#164;" d="M3.48047 6.97852C1.44727 6.97852 0 5.54297 0 3.49219C0 1.43555 1.44727 0 3.48047 0H8.79492C10.8281 0 12.2754 1.43555 12.2754 3.49219C12.2754 5.54297 10.8281 6.97852 8.79492 6.97852H6.95508C6.70898 6.69141 6.68555 6.12305 6.84375 5.88281H8.72461C10.125 5.88281 11.1152 4.89844 11.1152 3.49219C11.1152 2.08594 10.125 1.0957 8.72461 1.0957H3.55078C2.15039 1.0957 1.16016 2.08594 1.16016 3.49219C1.16016 4.89844 2.15039 5.88281 3.55078 5.88281H3.89062C3.83789 6.22266 3.86133 6.61523 3.9082 6.97852H3.48047ZM8.20312 9.75C6.16406 9.75 4.7168 8.31445 4.7168 6.25781C4.7168 4.20703 6.16406 2.77148 8.20312 2.77148H10.0371C10.2715 3.05859 10.3008 3.61523 10.1484 3.86719H8.26758C6.86719 3.86719 5.87695 4.85156 5.87695 6.25781C5.87695 7.6582 6.87305 8.6543 8.26758 8.6543H13.4473C14.8418 8.6543 15.8379 7.6582 15.8379 6.25781C15.8379 4.85156 14.8477 3.86719 13.4473 3.86719H13.1016C13.1602 3.52734 13.1309 3.13477 13.084 2.77148H13.5117C15.5449 2.77148 16.9922 4.20703 16.9922 6.25781C16.9922 8.31445 15.5449 9.75 13.5117 9.75H8.20312Z" fill="#FFFBFB"/>
</svg>
