<svg width="13" height="11" viewBox="0 0 13 11" fill="none" xmlns="http://www.w3.org/2000/svg">
<path id="&#244;&#129;&#134;&#172;" d="M1.98633 3.97852C0.890625 3.97852 0 3.08789 0 1.98633C0 0.890625 0.890625 0 1.98633 0C3.08789 0 3.97852 0.890625 3.97852 1.98633C3.97852 3.08789 3.08789 3.97852 1.98633 3.97852ZM10.8516 3.97852C9.75586 3.97852 8.86523 3.08789 8.86523 1.98633C8.86523 0.890625 9.75586 0 10.8516 0C11.9531 0 12.8438 0.890625 12.8438 1.98633C12.8438 3.08789 11.9531 3.97852 10.8516 3.97852ZM1.98633 2.90625C2.50781 2.90625 2.90625 2.50195 2.90625 1.98633C2.90625 1.4707 2.50781 1.07227 1.98633 1.07227C1.47656 1.07227 1.07812 1.4707 1.07812 1.98633C1.07812 2.50195 1.47656 2.90625 1.98633 2.90625ZM10.8516 2.90625C11.373 2.90625 11.7656 2.50195 11.7656 1.98633C11.7656 1.4707 11.373 1.07227 10.8516 1.07227C10.3418 1.07227 9.9375 1.4707 9.9375 1.98633C9.9375 2.50195 10.3418 2.90625 10.8516 2.90625ZM4.94531 2.50781C4.66406 2.50781 4.43555 2.2793 4.43555 1.99805C4.43555 1.7168 4.66406 1.48828 4.94531 1.48828C5.22656 1.48828 5.45508 1.7168 5.45508 1.99805C5.45508 2.2793 5.22656 2.50781 4.94531 2.50781ZM6.42188 2.50781C6.14062 2.50781 5.91211 2.2793 5.91211 1.99805C5.91211 1.7168 6.14062 1.48828 6.42188 1.48828C6.70312 1.48828 6.93164 1.7168 6.93164 1.99805C6.93164 2.2793 6.70312 2.50781 6.42188 2.50781ZM7.89844 2.50781C7.61719 2.50781 7.38867 2.2793 7.38867 1.99805C7.38867 1.7168 7.61719 1.48828 7.89844 1.48828C8.17383 1.48828 8.4082 1.7168 8.4082 1.99805C8.4082 2.2793 8.17383 2.50781 7.89844 2.50781ZM9.33398 5.19141C9.05273 5.19141 8.82422 4.96289 8.82422 4.6875C8.82422 4.40625 9.05273 4.17773 9.33398 4.17773C9.60938 4.17773 9.83789 4.40625 9.83789 4.6875C9.83789 4.96289 9.60938 5.19141 9.33398 5.19141ZM3.50977 5.19141C3.22852 5.19141 3 4.96289 3 4.6875C3 4.40625 3.22852 4.17773 3.50977 4.17773C3.79102 4.17773 4.01953 4.40625 4.01953 4.6875C4.01953 4.96289 3.79102 5.19141 3.50977 5.19141ZM8.22656 6.41602C7.94531 6.41602 7.7168 6.1875 7.7168 5.90625C7.7168 5.625 7.94531 5.39648 8.22656 5.39648C8.50195 5.39648 8.73633 5.625 8.73633 5.90625C8.73633 6.1875 8.50195 6.41602 8.22656 6.41602ZM4.61719 6.41602C4.33594 6.41602 4.10742 6.1875 4.10742 5.90625C4.10742 5.625 4.33594 5.39648 4.61719 5.39648C4.89258 5.39648 5.12695 5.625 5.12695 5.90625C5.12695 6.1875 4.89258 6.41602 4.61719 6.41602ZM6.42188 10.5059C5.32617 10.5059 4.43555 9.60938 4.43555 8.50781C4.43555 7.41211 5.32617 6.52148 6.42188 6.52148C7.52344 6.52148 8.41406 7.41211 8.41406 8.50781C8.41406 9.60938 7.52344 10.5059 6.42188 10.5059ZM6.42188 9.42773C6.94336 9.42773 7.33594 9.02344 7.33594 8.50781C7.33594 7.99805 6.94336 7.59961 6.42188 7.59961C5.91211 7.59961 5.50781 7.99219 5.50781 8.50781C5.50781 9.02344 5.91211 9.42773 6.42188 9.42773Z" fill="white"/>
</svg>
