<svg width="13" height="14" viewBox="0 0 13 14" fill="none" xmlns="http://www.w3.org/2000/svg">
<path id="&#244;&#129;&#163;&#155;" d="M6.05273 13.3301C2.71289 13.3301 0 10.6172 0 7.27734C0 5.34961 0.914062 3.62109 2.36133 2.50781C2.66602 2.25 3.06445 2.31445 3.25195 2.57812C3.45703 2.86523 3.36914 3.20508 3.09375 3.43945C1.93945 4.32422 1.18945 5.70117 1.18945 7.27734C1.18945 9.9668 3.36328 12.1348 6.05273 12.1348C8.74219 12.1348 10.916 9.9668 10.916 7.27734C10.916 4.99805 9.35156 3.08789 7.23047 2.56055V3.31641C7.23047 3.75 6.90234 3.86133 6.58008 3.62695L4.68164 2.26758C4.42383 2.08008 4.41797 1.78711 4.68164 1.59961L6.57422 0.240234C6.90234 0 7.23047 0.111328 7.23047 0.550781V1.3418C10.0137 1.89258 12.1055 4.3418 12.1055 7.27734C12.1055 10.6172 9.39258 13.3301 6.05273 13.3301ZM5.42578 10.0605C5.20898 10.0605 5.03906 9.97266 4.88086 9.76758L3.49805 8.08008C3.39844 7.95703 3.3457 7.82812 3.3457 7.6875C3.3457 7.39453 3.57422 7.16602 3.85547 7.16602C4.03125 7.16602 4.17188 7.23047 4.3125 7.41211L5.40234 8.80078L7.7168 5.08594C7.83984 4.88672 7.99805 4.79297 8.17383 4.79297C8.44922 4.79297 8.70703 4.98633 8.70703 5.27344C8.70703 5.4082 8.63672 5.54883 8.56055 5.67188L5.94141 9.76758C5.81836 9.95508 5.63672 10.0605 5.42578 10.0605Z" fill="white"/>
</svg>
