<svg width="15" height="13" viewBox="0 0 15 13" fill="none" xmlns="http://www.w3.org/2000/svg">
<path id="&#244;&#128;&#162;&#164;" d="M7.30664 1.18945C5.95312 1.18945 4.72852 1.75195 3.86133 2.66016C3.54492 2.94727 3.23438 2.89453 3.0293 2.71289C2.79492 2.50781 2.72461 2.10352 3.0293 1.81641C4.10742 0.697266 5.63086 0 7.30664 0C10.2891 0 12.7617 2.15625 13.2656 5.00391H14.0625C14.502 5.00391 14.6133 5.32617 14.373 5.66016L13.0137 7.54688C12.8203 7.81641 12.5332 7.81055 12.3457 7.54688L10.9863 5.6543C10.752 5.32617 10.8633 5.00391 11.2969 5.00391H12.0527C11.5723 2.81836 9.63281 1.18945 7.30664 1.18945ZM7.30078 7.03125C6.97266 7.03125 6.79102 6.84375 6.7793 6.51562L6.69727 3.66211C6.68555 3.32227 6.93164 3.07617 7.29492 3.07617C7.65234 3.07617 7.91016 3.32227 7.89844 3.66797L7.81055 6.51562C7.79883 6.84961 7.61719 7.03125 7.30078 7.03125ZM0.550781 7.10156C0.111328 7.10156 0 6.77344 0.240234 6.44531L1.59961 4.55273C1.78711 4.28906 2.08008 4.29492 2.26758 4.55273L3.62695 6.45117C3.86133 6.77344 3.75 7.10156 3.31641 7.10156H2.56055C3.04102 9.28711 4.98047 10.9102 7.30664 10.9102C8.66016 10.9102 9.88477 10.3535 10.752 9.44531C11.0684 9.1582 11.373 9.20508 11.584 9.39258C11.8184 9.59766 11.8828 10.002 11.5781 10.2891C10.5059 11.4082 8.98242 12.1055 7.30664 12.1055C4.32422 12.1055 1.8457 9.94922 1.34766 7.10156H0.550781ZM7.30078 8.9707C6.92578 8.9707 6.61523 8.69531 6.61523 8.32617C6.61523 7.96289 6.91992 7.6875 7.30078 7.6875C7.68164 7.6875 7.98633 7.95703 7.98633 8.32617C7.98633 8.70117 7.67578 8.9707 7.30078 8.9707Z" fill="white"/>
</svg>
