<svg width="15" height="13" viewBox="0 0 15 13" fill="none" xmlns="http://www.w3.org/2000/svg">
<path id="&#244;&#128;&#142;&#158;" d="M0.603516 6.46875C0.228516 6.46875 0 6.21094 0 5.90625C0 5.74219 0.0761719 5.57227 0.228516 5.44336L6.33398 0.316406C6.5918 0.105469 6.87305 0 7.1543 0C7.43555 0 7.7168 0.105469 7.97461 0.316406L10.8691 2.75391V1.71094C10.8691 1.45312 11.0449 1.2832 11.3086 1.2832H12.0996C12.3574 1.2832 12.5273 1.45312 12.5273 1.71094V4.14258L14.0801 5.44336C14.2324 5.57227 14.3086 5.74219 14.3086 5.90625C14.3086 6.21094 14.0801 6.46875 13.7109 6.46875C13.5293 6.46875 13.3652 6.375 13.2246 6.25195L12.5273 5.67188V11.1738C12.5273 12.041 12.0059 12.5508 11.1211 12.5508H3.19336C2.30273 12.5508 1.78125 12.041 1.78125 11.1738V5.67188L1.08398 6.25195C0.943359 6.375 0.785156 6.46875 0.603516 6.46875ZM8.84766 7.99805V11.4023H10.8164C11.1797 11.4023 11.3789 11.1973 11.3789 10.8281V4.70508L7.40625 1.37109C7.32422 1.30078 7.23633 1.27148 7.1543 1.27148C7.07227 1.27148 6.98438 1.30078 6.9082 1.37109L2.92969 4.70508V10.8281C2.92969 11.1973 3.12891 11.4023 3.49219 11.4023H5.46094V7.99805C5.46094 7.72266 5.64258 7.54688 5.91797 7.54688H8.39648C8.67188 7.54688 8.84766 7.72266 8.84766 7.99805Z" fill="white"/>
</svg>
