<svg width="11" height="15" viewBox="0 0 11 15" fill="none" xmlns="http://www.w3.org/2000/svg">
<path id="&#244;&#130;&#181;&#139;" d="M3.21094 3.05273C2.85352 3.05273 2.64258 2.83008 2.64258 2.44922V1.83398C2.64258 1.45312 2.85352 1.23047 3.21094 1.23047H3.70312C3.75 0.550781 4.31836 0 5.01562 0C5.71289 0 6.28125 0.550781 6.32227 1.23047H6.82031C7.17188 1.23047 7.38867 1.45312 7.38867 1.83398V2.44922C7.38867 2.83008 7.17188 3.05273 6.82031 3.05273H3.21094ZM5.01562 1.79883C5.30273 1.79883 5.53125 1.55859 5.53125 1.27734C5.53125 0.996094 5.30273 0.761719 5.01562 0.761719C4.72852 0.761719 4.49414 0.996094 4.49414 1.27734C4.49414 1.55859 4.72852 1.79883 5.01562 1.79883ZM1.9043 14.3203C0.662109 14.3203 0 13.6523 0 12.3926V3.52734C0 2.29102 0.644531 1.59375 1.85156 1.59375H1.98633C1.96289 1.66992 1.95117 1.75195 1.95117 1.83398V2.37891C1.95117 2.50195 1.96875 2.61914 1.99805 2.71875H1.875C1.38281 2.71875 1.125 3.04102 1.125 3.53906V12.375C1.125 12.9023 1.41211 13.1953 1.95703 13.1953H8.07422C8.61914 13.1953 8.90625 12.9023 8.90625 12.375V3.53906C8.90625 3.04102 8.64844 2.71875 8.15039 2.71875H8.02734C8.0625 2.61914 8.07422 2.50195 8.07422 2.37891V1.83398C8.07422 1.75195 8.06836 1.66992 8.04492 1.59375H8.17969C9.38672 1.59375 10.0254 2.29102 10.0254 3.52734V12.3926C10.0254 13.6523 9.36914 14.3203 8.12109 14.3203H1.9043ZM2.96484 6.60352C2.78906 6.60352 2.64258 6.45117 2.64258 6.27539C2.64258 6.10547 2.78906 5.95312 2.96484 5.95312H3.64453L4.06055 4.21875C4.14844 3.87305 4.61133 3.88477 4.68164 4.22461L5.11523 6.36328L5.55469 4.93945C5.66602 4.61133 6.09961 4.59961 6.1875 4.92773L6.45117 5.95312H7.07812C7.26562 5.95312 7.40625 6.09961 7.40625 6.27539C7.40625 6.45117 7.25391 6.60352 7.07812 6.60352H6.24609C6.07031 6.60352 5.95312 6.50391 5.90625 6.33984L5.85352 6.12305L5.39062 7.69922C5.29102 8.0332 4.82812 8.02734 4.75781 7.68164L4.35352 5.72461L4.20703 6.33398C4.16602 6.49805 4.04297 6.60352 3.86133 6.60352H2.96484ZM2.49023 9.49805C2.27344 9.49805 2.10938 9.32812 2.10938 9.11719C2.10938 8.91211 2.27344 8.74805 2.49023 8.74805H7.54102C7.75195 8.74805 7.91602 8.91211 7.91602 9.11719C7.91602 9.32812 7.75195 9.49805 7.54102 9.49805H2.49023ZM2.49023 11.6836C2.2793 11.6836 2.10938 11.5137 2.10938 11.3027C2.10938 11.0977 2.27344 10.9336 2.49023 10.9336H5.4082C5.61914 10.9336 5.7832 11.0977 5.7832 11.3027C5.7832 11.5137 5.61328 11.6836 5.4082 11.6836H2.49023Z" fill="white"/>
</svg>
