<svg width="12" height="14" viewBox="0 0 12 14" fill="none" xmlns="http://www.w3.org/2000/svg">
<path id="&#244;&#128;&#142;&#171;" d="M3.60938 2.32617C3.60938 1.04883 4.63477 0 5.92383 0C7.20703 0 8.23828 1.04883 8.23828 2.32617C8.23828 3.39258 7.51758 4.30078 6.52734 4.56445V8.25586C6.52734 9.85547 6.17578 10.834 5.92383 10.834C5.66602 10.834 5.30859 9.84961 5.30859 8.25586V4.56445C4.32422 4.29492 3.60938 3.39258 3.60938 2.32617ZM5.26758 2.45508C5.70117 2.45508 6.05859 2.08594 6.05859 1.6582C6.05859 1.23047 5.70117 0.867188 5.26758 0.867188C4.8457 0.867188 4.4707 1.23047 4.4707 1.6582C4.4707 2.08594 4.8457 2.45508 5.26758 2.45508ZM5.91797 13.125C2.20898 13.125 0 11.877 0 10.4473C0 8.87109 2.41992 7.86328 4.3125 7.78711V8.81836C3.0293 8.87109 1.33008 9.48047 1.33008 10.3301C1.33008 11.3438 3.25781 12.0352 5.91797 12.0352C8.57812 12.0352 10.5117 11.3379 10.5117 10.3301C10.5117 9.48047 8.8125 8.87109 7.52344 8.81836V7.78711C9.42188 7.86328 11.8418 8.87109 11.8418 10.4473C11.8418 11.877 9.63281 13.125 5.91797 13.125Z" fill="white"/>
</svg>
