<svg width="14" height="13" viewBox="0 0 14 13" fill="none" xmlns="http://www.w3.org/2000/svg">
<path id="&#244;&#129;&#133;&#143;" d="M6.05273 12.1055C2.71289 12.1055 0 9.39258 0 6.05273C0 2.71289 2.71289 0 6.04688 0C9.07617 0 11.6367 2.25 12.041 5.21484C11.6309 5.06836 11.3613 5.00977 11.0625 5.00391C11.0332 4.88086 11.0039 4.76367 10.9688 4.64062C10.2949 5.12109 9.54492 5.47852 8.75977 5.70703C8.60742 6.00586 8.29102 6.2168 7.93359 6.2168C7.69336 6.2168 7.47656 6.12305 7.3125 5.97656C7.10156 5.99414 6.88477 6.00586 6.66797 6.00586C6.52148 6.00586 6.375 6.00586 6.22852 5.99414C6.24023 6.61523 6.31641 7.24805 6.45703 7.875C6.86133 7.98047 7.1543 8.34961 7.1543 8.7832C7.1543 9.00586 7.07227 9.2168 6.94336 9.375C7.11328 9.78516 7.31836 10.1895 7.55273 10.5762C7.61133 10.6934 7.66992 10.7871 7.73438 10.8164C7.85156 11.1094 8.04492 11.4023 8.30273 11.6543C8.22656 11.6953 8.14453 11.7246 8.0625 11.748C7.41797 11.9824 6.73828 12.1055 6.05273 12.1055ZM6.73828 0.990234C6.66797 0.978516 6.59766 0.972656 6.52734 0.960938C5.50195 1.89258 4.7168 3.03516 4.21289 4.28906C4.36523 4.44141 4.4707 4.64062 4.49414 4.86328C4.81055 4.96875 5.13281 5.05078 5.46094 5.10938C5.57227 3.65625 6.01172 2.25 6.73828 0.990234ZM1.81055 3.19336C2.17969 3.5625 2.58398 3.89062 3.01758 4.16602C3.14648 4.07812 3.30469 4.02539 3.46875 4.01367C3.9082 2.90039 4.55859 1.875 5.37891 0.984375C3.89648 1.17773 2.61328 2.00977 1.81055 3.19336ZM7.91602 3.24023C7.92188 3.62109 7.95703 3.99609 8.02734 4.36523C8.34961 4.39453 8.625 4.59375 8.76562 4.86914C9.45117 4.64648 10.0957 4.30664 10.6758 3.86133C10.1543 2.77148 9.26367 1.89844 8.16797 1.40625C7.99219 1.99805 7.91016 2.61914 7.91602 3.24023ZM7.125 3.24023C7.11914 2.68945 7.17188 2.15039 7.28906 1.62305C6.69727 2.71875 6.3457 3.93164 6.25195 5.20312C6.39258 5.20898 6.52734 5.21484 6.66797 5.20898C6.78516 5.20898 6.89648 5.20898 7.00781 5.20312C7.02539 4.98047 7.125 4.78125 7.27148 4.63477C7.17773 4.17773 7.125 3.71484 7.125 3.24023ZM0.9375 6.05273C0.9375 6.13477 0.9375 6.2168 0.943359 6.29297C1.51758 6.7793 2.13281 7.18359 2.7832 7.50586C2.78906 6.9082 2.85352 6.32227 2.96484 5.74805C2.72461 5.57227 2.57227 5.29102 2.57227 4.97461C2.57227 4.92773 2.57227 4.88086 2.57812 4.83984C2.16211 4.57617 1.76367 4.26562 1.40039 3.92578C1.10156 4.57031 0.9375 5.29102 0.9375 6.05273ZM3.58008 7.85156C4.16602 8.07422 4.76953 8.23242 5.37891 8.32617C5.44922 8.20312 5.54297 8.10352 5.6543 8.02148C5.50781 7.33008 5.4375 6.62109 5.43164 5.91211C5.02734 5.84766 4.63477 5.74805 4.24805 5.61914C4.11328 5.77148 3.9375 5.87695 3.73828 5.91797C3.61523 6.54492 3.5625 7.19531 3.58008 7.85156ZM13.1836 9.58008C13.1836 10.6934 12.5273 11.1211 10.875 12.0586C10.7344 12.1406 10.541 12.1523 10.377 12.0586C8.71875 11.1211 8.06836 10.6934 8.06836 9.58008V7.43555C8.06836 7.07227 8.19141 6.85547 8.55469 6.70312C8.88281 6.56836 9.97266 6.1875 10.2891 6.07617C10.5117 6 10.752 6.00586 10.998 6.09961C11.2676 6.19922 12.3691 6.56836 12.6914 6.70312C13.0605 6.85547 13.1836 7.07227 13.1836 7.43555V9.58008ZM10.6289 11.2266V6.86719C10.5645 6.86133 10.4883 6.87305 10.4121 6.90234C10.0195 7.04883 9.5332 7.23047 9.09961 7.38867C8.93555 7.44727 8.88281 7.5293 8.88281 7.68164V9.48047C8.88281 10.2422 9.1875 10.4297 10.4707 11.1797C10.5293 11.2148 10.5762 11.2324 10.6289 11.2266ZM1.13086 7.44727C1.45312 8.58398 2.15625 9.55664 3.09375 10.2246C2.93555 9.62109 2.83594 9.01172 2.80664 8.39062C2.2207 8.13867 1.6582 7.82227 1.13086 7.44727ZM6.05273 11.168C6.31641 11.168 6.5918 11.1445 6.83789 11.1035C6.58008 10.6699 6.35156 10.2129 6.1582 9.72656C5.77734 9.70898 5.45508 9.46289 5.32617 9.12305C4.75195 9.03516 4.18359 8.90039 3.62695 8.71289C3.69727 9.42188 3.86133 10.1191 4.11328 10.7871C4.71094 11.0332 5.36719 11.168 6.05273 11.168Z" fill="#FFFBFB"/>
</svg>
