<svg width="13" height="13" viewBox="0 0 13 13" fill="none" xmlns="http://www.w3.org/2000/svg">
<path id="&#244;&#128;&#164;&#134;" d="M6.05273 12.1055C2.71289 12.1055 0 9.39258 0 6.05273C0 2.71289 2.71289 0 6.05273 0C9.39258 0 12.1055 2.71289 12.1055 6.05273C12.1055 9.39258 9.39258 12.1055 6.05273 12.1055ZM4.49414 4.86328C4.81055 4.96875 5.13281 5.05078 5.46094 5.10938C5.57227 3.65039 6.01172 2.24414 6.73828 0.984375C6.66797 0.972656 6.59766 0.966797 6.52734 0.960938C5.50781 1.89258 4.7168 3.0293 4.21289 4.28906C4.36523 4.44141 4.4707 4.64062 4.49414 4.86328ZM1.81641 3.19336C2.17969 3.5625 2.58398 3.89062 3.01758 4.16602C3.15234 4.07812 3.30469 4.02539 3.46875 4.01367C3.91406 2.90039 4.55859 1.875 5.37891 0.984375C3.89648 1.17773 2.61328 2.00977 1.81641 3.19336ZM7.92188 3.24023C7.92188 3.67383 7.97461 4.10156 8.0625 4.51172C8.34961 4.51758 8.60742 4.6582 8.77734 4.86914C9.45703 4.64062 10.1016 4.30078 10.6758 3.86133C10.1602 2.77148 9.26953 1.89844 8.16797 1.39453C7.99805 1.99219 7.91016 2.61328 7.92188 3.24023ZM7.125 3.24023C7.11914 2.68945 7.17773 2.14453 7.29492 1.61133C6.70312 2.71289 6.3457 3.93164 6.25195 5.20312C6.39258 5.20898 6.5332 5.21484 6.66797 5.20898C6.82031 5.20898 6.97266 5.20312 7.11914 5.19727C7.16016 5.0625 7.23047 4.93945 7.31836 4.83984C7.19531 4.32422 7.13086 3.78516 7.125 3.24023ZM0.9375 6.05273C0.9375 6.13477 0.943359 6.2168 0.943359 6.29883C1.51758 6.7793 2.13281 7.18359 2.78906 7.50586C2.79492 6.9082 2.85352 6.32227 2.96484 5.74805C2.72461 5.57227 2.57227 5.29102 2.57227 4.97461C2.57227 4.92773 2.57812 4.88086 2.58398 4.83984C2.16211 4.57617 1.76367 4.26562 1.40039 3.92578C1.10742 4.57031 0.9375 5.29102 0.9375 6.05273ZM11.168 6.05273C11.168 5.56641 11.0977 5.0918 10.9688 4.64648C10.3594 5.07422 9.68555 5.4082 8.97656 5.64258C8.93555 5.85352 8.82422 6.04688 8.67188 6.18164C9.00586 6.80859 9.44531 7.37695 9.97852 7.86328C10.3184 7.73438 10.6582 7.58203 10.9863 7.40625C11.1035 6.97266 11.168 6.52148 11.168 6.05273ZM3.58008 7.85156C4.18359 8.08008 4.80469 8.24414 5.43164 8.34375C5.49609 8.22656 5.57812 8.12695 5.67773 8.04492C5.51953 7.35352 5.4375 6.63867 5.43164 5.91211C5.0332 5.84766 4.63477 5.74805 4.24805 5.61914C4.11914 5.77148 3.9375 5.87695 3.73828 5.91797C3.61523 6.55078 3.5625 7.19531 3.58008 7.85156ZM6.67383 6.00586C6.52734 6.00586 6.375 6.00586 6.22852 5.99414C6.24023 6.62695 6.31641 7.24219 6.45117 7.8457C6.78516 7.9043 7.06055 8.13281 7.18359 8.4375C7.83398 8.4082 8.49023 8.30859 9.12891 8.13867C8.63086 7.62891 8.2207 7.04297 7.89844 6.41602C7.61719 6.375 7.37695 6.21094 7.23047 5.98242C7.04883 6 6.86133 6.00586 6.67383 6.00586ZM1.13086 7.44727C1.45312 8.58398 2.15625 9.55664 3.09375 10.2246C2.93555 9.62109 2.8418 9.01172 2.80664 8.39648C2.22656 8.13867 1.66406 7.82227 1.13086 7.44727ZM6.05273 11.168C6.35742 11.168 6.65039 11.1387 6.9375 11.0918C6.67383 10.6641 6.43945 10.2188 6.24023 9.76172C5.8418 9.74414 5.50781 9.48633 5.37891 9.13477C4.78711 9.04688 4.20117 8.90625 3.62695 8.71289C3.69727 9.42773 3.86133 10.1191 4.11328 10.7871C4.71094 11.0332 5.36719 11.168 6.05273 11.168ZM6.97852 9.46875C7.19531 9.96094 7.45312 10.4297 7.75195 10.875C8.74219 10.5293 9.5918 9.88477 10.1953 9.04688C10.0664 8.95898 9.9375 8.86523 9.81445 8.76562C8.94727 9.04688 8.05078 9.19922 7.14844 9.23438C7.10156 9.32227 7.04883 9.39844 6.97852 9.46875Z" fill="white"/>
</svg>
