<svg width="15" height="11" viewBox="0 0 15 11" fill="none" xmlns="http://www.w3.org/2000/svg">
<path id="&#244;&#128;&#153;&#184;" d="M11.7012 10.4004L3.60352 10.3945C1.55859 10.3945 0 8.91211 0 7.13086C0 5.66602 0.826172 4.46484 2.16797 4.23047C2.2207 2.57812 3.78516 1.4707 5.26758 1.86914C6.00586 0.808594 7.16602 0 8.73047 0C11.1855 0 13.0898 1.91016 13.084 4.55859C14.2441 5.04492 14.9531 6.14648 14.9531 7.38867C14.9531 9.05859 13.5176 10.4004 11.7012 10.4004ZM7.76367 8.37305C9.10547 8.37305 10.1836 7.28906 10.1836 5.94141C10.1836 5.71875 9.99609 5.53711 9.77344 5.53711C9.54492 5.53711 9.35742 5.71875 9.35742 5.94141C9.35742 6.83203 8.64844 7.55273 7.76367 7.55273C6.87305 7.55273 6.16406 6.83203 6.16406 5.92969C6.16406 5.19141 6.63867 4.57617 7.30078 4.38281V5.08008C7.30078 5.35547 7.60547 5.4668 7.82227 5.28516L8.94727 4.31836C9.14648 4.14844 9.14062 3.88477 8.94727 3.72656L7.82227 2.77734C7.60547 2.60156 7.30078 2.70117 7.30078 2.98828V3.52734C6.17578 3.74414 5.33789 4.72852 5.33789 5.92969C5.33789 7.28906 6.42188 8.37305 7.76367 8.37305Z" fill="white"/>
</svg>
