<svg width="12" height="14" viewBox="0 0 12 14" fill="none" xmlns="http://www.w3.org/2000/svg">
<path id="&#244;&#128;&#136;&#145;" d="M3.08789 13.2246C2.17969 13.2246 1.60547 12.6855 1.56445 11.7832L1.16602 3.33398H0.515625C0.234375 3.33398 0 3.11133 0 2.81836C0 2.53125 0.234375 2.30859 0.515625 2.30859H3.11719V1.42969C3.11719 0.533203 3.69141 0 4.6582 0H6.88477C7.85742 0 8.42578 0.533203 8.42578 1.42969V2.30859H11.0332C11.3262 2.30859 11.5547 2.53125 11.5547 2.81836C11.5547 3.11133 11.3262 3.33398 11.0332 3.33398H10.3887L9.99023 11.7773C9.94922 12.6797 9.36914 13.2246 8.47266 13.2246H3.08789ZM4.19531 1.48242V2.30859H7.34766V1.48242C7.34766 1.17773 7.13672 0.984375 6.80859 0.984375H4.73438C4.40625 0.984375 4.19531 1.17773 4.19531 1.48242ZM3.19922 12.1875H8.34375C8.67773 12.1875 8.91211 11.9531 8.92383 11.6074L9.30469 3.33398H2.22656L2.625 11.6074C2.64258 11.9531 2.87695 12.1875 3.19922 12.1875ZM4.04883 11.2441C3.81445 11.2441 3.65039 11.0918 3.64453 10.8574L3.46875 4.7168C3.46289 4.48828 3.62109 4.33008 3.86719 4.33008C4.10156 4.33008 4.26562 4.48242 4.27148 4.7168L4.44727 10.8574C4.45312 11.0859 4.29492 11.2441 4.04883 11.2441ZM5.77734 11.2441C5.53125 11.2441 5.36719 11.0859 5.36719 10.8574V4.7168C5.36719 4.48828 5.53125 4.33008 5.77734 4.33008C6.02344 4.33008 6.1875 4.48828 6.1875 4.7168V10.8574C6.1875 11.0859 6.02344 11.2441 5.77734 11.2441ZM7.50586 11.2441C7.25977 11.2441 7.0957 11.0859 7.10156 10.8574L7.2832 4.7168C7.28906 4.48242 7.45312 4.33008 7.6875 4.33008C7.92773 4.33008 8.0918 4.48828 8.08594 4.7168L7.9043 10.8574C7.89844 11.0918 7.74023 11.2441 7.50586 11.2441Z" fill="white"/>
</svg>
